<?xml version="1.0" encoding="utf-8"?>
<!-- Generator: Adobe Illustrator 15.0.2, SVG Export Plug-In . SVG Version: 6.00 Build 0)  -->
<!DOCTYPE svg PUBLIC "-//W3C//DTD SVG 1.1//EN" "http://www.w3.org/Graphics/SVG/1.1/DTD/svg11.dtd">
<svg version="1.1" id="Layer_1" xmlns="http://www.w3.org/2000/svg" xmlns:xlink="http://www.w3.org/1999/xlink" x="0px" y="0px"
	 width="1094px" height="149.939px" viewBox="0 0 1094 149.939" enable-background="new 0 0 1094 149.939" xml:space="preserve">
<path id="Logo" fill="#902828" d="M76.663,149.94c-29.434,0-56.285-7.354-76.663-19.451c18.145,9.168,40.467,14.581,64.617,14.581
	c60.725,0,109.951-34.194,109.951-76.377c0-30.196-25.229-56.298-61.843-68.693c46.029,10.099,79.271,38.982,79.271,73.056
	C191.997,115.515,140.36,149.94,76.663,149.94z M105.881,98.68L89.734,73.05c0,0,7.796,2.056,15.636,2.056
	c7.924,0,15.89-2.056,15.89-2.056L105.881,98.68z M73.673,129.351h5.473l-2.734,3.674L73.673,129.351z M73.043,120.978
	c0.812-2.771,3.363-5.146,3.363-5.146s2.553,2.393,3.356,5.146c0.902,3.11,0.074,6.408,0.074,6.408h-6.864
	C72.972,127.386,72.138,124.085,73.043,120.978z M76.409,115.802c-2.741-2.813-6.78-5.021-11.56-6.267
	c2.063-4.303,6.465-7.271,11.557-7.271c5.093,0,9.49,2.97,11.558,7.271C83.185,110.784,79.149,112.992,76.409,115.802z
	 M72.05,15.383c0,0-0.021-3.679,1.042-6.573c0.924-2.51,3.314-6.239,3.314-6.239s2.699,4.377,3.264,6.407
	c0.692,2.494,0.837,6.402,0.837,6.402l0.261,83.302H72.05V15.383z M31.554,73.052c0,0,7.796,2.051,15.634,2.051
	c7.924,0,15.891-2.051,15.891-2.051L47.701,98.68L31.554,73.052z"/>
<path id="MPT" fill="#902828" d="M420.91,50.967v60.166h-15.55V50.967h-23.325V37.937h63.113v13.025L420.91,50.967L420.91,50.967z
	 M371.309,80.513c-2.146,1.896-4.451,3.209-6.917,3.938c-2.467,0.732-5.827,1.104-10.081,1.104h-25.042v25.573h-15.552V37.936
	h36.519c6.648,0,11.423,0.465,14.317,1.395c4.789,1.608,8.579,4.951,11.367,10.027c2.069,3.754,3.105,7.884,3.105,12.388
	c0,3.719-0.68,7.238-2.037,10.563C375.635,75.635,373.74,78.368,371.309,80.513z M356.723,51.717
	c-1.252-0.5-3.218-0.751-5.898-0.751h-21.557v21.562h21.234c3.785,0,6.449-0.606,7.985-1.822c2.288-1.823,3.437-4.986,3.437-9.491
	C361.927,56.275,360.191,53.112,356.723,51.717z M283.849,56.168l-19.146,54.964h-16.032l-18.066-54.964v54.964H215.75V37.936h22.79
	l18.231,57.104l19.192-57.104H298.7v73.191h-14.854L283.849,56.168L283.849,56.168z"/>
<g id="PA-AP">
	<path fill="#902828" d="M470.915,45.624l7.198,21.892h6.386l7.624-21.892v21.892h5.916V38.363h-9.055l-7.646,22.746l-7.261-22.746H465
		v29.153h5.916V45.624z M509.763,46.222h-5.852v21.293h5.852V46.222z M509.763,38.363h-5.852v5.681h5.852V38.363z M529.519,53.74
		v13.776h5.852V54.402c0-2.961-0.748-5.118-2.243-6.471c-0.712-0.654-1.517-1.103-2.414-1.345c-0.896-0.242-2.186-0.363-3.865-0.363
		h-11.298v21.293h5.852V50.771h5.104c1.068,0,1.837,0.231,2.307,0.694C529.284,51.928,529.519,52.686,529.519,53.74z
		 M546.711,46.222h-5.852v21.293h5.852V46.222z M546.711,38.363h-5.852v5.681h5.852V38.363z M553.823,57.862
		c0.641,0.456,1.335,0.769,2.083,0.94c0.746,0.171,1.811,0.256,3.192,0.256h3.545c1.339,0,2.192,0.093,2.563,0.278
		c0.684,0.327,1.026,0.932,1.026,1.815c0,1.054-0.521,1.638-1.559,1.751c-0.471,0.042-1.354,0.064-2.649,0.064h-10.422v4.549h12.108
		c2.136,0,3.666-0.164,4.593-0.492c0.925-0.327,1.715-0.989,2.37-1.986c0.854-1.295,1.281-2.712,1.281-4.25
		c0-2.037-0.712-3.581-2.136-4.635c-1.281-0.954-3.025-1.431-5.232-1.431h-3.46c-1.551,0-2.498-0.114-2.84-0.342
		c-0.641-0.398-0.961-0.975-0.961-1.73c0-0.911,0.334-1.48,1.004-1.708c0.327-0.114,1.082-0.171,2.264-0.171h10.379v-4.549h-12.515
		c-2.307,0-3.923,0.371-4.848,1.111c-1.553,1.253-2.329,2.947-2.329,5.083c0,1.125,0.229,2.171,0.685,3.139
		C552.421,56.524,553.04,57.293,553.823,57.862z M589.318,67.515v-4.549h-2.307c-1.252,0-2.128-0.349-2.627-1.047
		c-0.327-0.47-0.49-1.609-0.49-3.417v-7.731h5.424v-4.549h-5.424v-7.859h-5.853v7.859h-3.716v4.549h3.716v8.756
		c0,2.876,0.537,4.926,1.612,6.151s2.88,1.837,5.415,1.837H589.318z M595.789,65.529c0.954,0.726,1.961,1.239,3.022,1.538
		c1.061,0.299,2.438,0.449,4.133,0.449h7.795v-4.549h-7.154c-1.766,0-3.043-0.292-3.834-0.876c-0.789-0.583-1.242-1.573-1.355-2.968
		h12.344v-4.549h-12.344c0.143-1.453,0.537-2.449,1.186-2.99c0.646-0.541,1.769-0.812,3.363-0.812h7.795v-4.549h-8.223
		c-2.136,0-3.858,0.278-5.167,0.833c-1.311,0.555-2.435,1.488-3.375,2.797c-1.367,1.909-2.05,4.158-2.05,6.749
		C591.925,60.56,593.213,63.535,595.789,65.529z M609.8,38h-5.168l-4.016,5.702h3.759L609.8,38z M630.794,47.845
		c-0.654-0.598-1.47-1.018-2.445-1.26c-0.976-0.242-2.346-0.363-4.111-0.363h-8.671v21.293h5.852V50.771h1.688
		c1.466,0,2.467,0.274,3.001,0.822s0.8,1.577,0.8,3.086v1.154h5.618v-2.072c0-1.623-0.129-2.869-0.386-3.737
		C631.884,49.156,631.434,48.429,630.794,47.845z M641.899,38.363h-5.852v5.681h5.852V38.363z M641.899,46.222h-5.852v21.293h5.852
		V46.222z M657.49,45.902c-3.731,0.043-6.585,1.168-8.564,3.375c-1.78,1.979-2.67,4.463-2.67,7.454c0,3.502,0.926,6.186,2.776,8.051
		c2.021,2.036,4.813,3.054,8.372,3.054c3.445,0,6.158-0.912,8.138-2.734c2.163-1.979,3.245-4.634,3.245-7.966
		c0-3.132-0.861-5.738-2.583-7.817C664.324,47.041,661.419,45.902,657.49,45.902z M657.575,63.351c-2.021,0-3.51-0.783-4.464-2.35
		c-0.569-0.925-0.854-2.277-0.854-4.057c0-4.371,1.758-6.557,5.275-6.557c3.502,0.043,5.253,2.193,5.253,6.45
		C662.786,61.179,661.05,63.351,657.575,63.351z M690.379,57.327h9.975c1.694,0,3.033-0.146,4.015-0.437
		c0.982-0.292,1.9-0.815,2.755-1.57c0.969-0.854,1.724-1.943,2.265-3.268c0.54-1.324,0.812-2.726,0.812-4.207
		c0-1.794-0.413-3.438-1.238-4.934c-1.111-2.021-2.62-3.353-4.528-3.994c-1.154-0.37-3.055-0.556-5.702-0.556h-14.545v29.153h6.193
		V57.327z M690.379,43.552h8.586c1.068,0,1.852,0.1,2.35,0.299c1.381,0.556,2.072,1.816,2.072,3.781c0,1.793-0.457,3.054-1.368,3.78
		c-0.611,0.484-1.673,0.726-3.182,0.726h-8.458V43.552z M733.841,46.222h-5.853v16.744h-5.531c-0.883,0-1.573-0.27-2.071-0.812
		c-0.499-0.541-0.747-1.289-0.747-2.243v-13.69h-5.853v13.092c0,2.976,0.748,5.14,2.243,6.493c0.712,0.654,1.517,1.103,2.414,1.345
		c0.896,0.243,2.185,0.364,3.864,0.364h11.533V46.222z M730.296,38h-5.169l-4.015,5.702h3.758L730.296,38z M753.607,67.184
		c1.06-0.22,2.075-0.63,3.042-1.228c3.133-1.936,4.699-5.061,4.699-9.375c0-1.779-0.313-3.41-0.939-4.891
		c-0.854-1.979-2.257-3.453-4.207-4.421c-1.425-0.697-3.275-1.047-5.554-1.047h-5.189v-7.859h-5.852v29.153h9.525
		C751.054,67.515,752.546,67.405,753.607,67.184z M745.459,50.771h4.335c3.716,0,5.574,1.994,5.574,5.98
		c0,1.794-0.477,3.297-1.43,4.506c-0.912,1.139-2.294,1.708-4.145,1.708h-4.335V50.771z M771.557,38.363h-5.853v29.153h5.853V38.363
		z M783.197,38.363h-5.853v5.681h5.853V38.363z M783.197,46.222h-5.853v21.293h5.853V46.222z M806.753,62.966h-6.32
		c-1.226,0-2.18-0.078-2.863-0.235c-0.683-0.157-1.316-0.448-1.9-0.876c-1.424-1.025-2.136-2.683-2.136-4.976
		c0-2.022,0.435-3.531,1.303-4.528c0.926-1.053,2.556-1.58,4.891-1.58h7.026v-4.549h-8.009c-1.95,0-3.538,0.16-4.762,0.48
		c-1.225,0.321-2.271,0.858-3.141,1.613c-2.192,1.879-3.288,4.713-3.288,8.5c0,3.132,0.911,5.717,2.734,7.752
		c0.981,1.097,2.099,1.862,3.353,2.296c1.253,0.435,2.954,0.652,5.104,0.652h8.009V62.966z M820.998,67.836
		c3.446,0,6.158-0.912,8.138-2.734c2.163-1.979,3.246-4.634,3.246-7.966c0-3.132-0.861-5.738-2.584-7.817
		c-1.88-2.277-4.785-3.417-8.714-3.417c-3.73,0.043-6.586,1.168-8.564,3.375c-1.78,1.979-2.669,4.463-2.669,7.454
		c0,3.502,0.925,6.186,2.775,8.051C814.648,66.818,817.438,67.836,820.998,67.836z M821.127,50.386
		c3.502,0.043,5.254,2.193,5.254,6.45c0,4.343-1.738,6.514-5.212,6.514c-2.021,0-3.51-0.783-4.464-2.35
		c-0.569-0.925-0.854-2.277-0.854-4.057C815.851,52.573,817.609,50.386,821.127,50.386z M867.77,67.515V38.363h-5.853v7.859h-5.51
		c-2.733,0-4.897,0.663-6.492,1.986c-2.449,2.022-3.674,4.863-3.674,8.522c0,2.221,0.413,4.115,1.238,5.68
		c1.225,2.307,3.091,3.852,5.596,4.634c1.026,0.314,2.563,0.471,4.613,0.471H867.77z M852.201,56.73
		c0-1.666,0.413-3.033,1.239-4.101c0.967-1.238,2.384-1.858,4.249-1.858h4.229v12.195h-4.229c-1.324,0-2.463-0.355-3.417-1.068
		C852.89,60.859,852.201,59.136,852.201,56.73z M883.361,45.902c-3.731,0.043-6.586,1.168-8.564,3.375
		c-1.781,1.979-2.67,4.463-2.67,7.454c0,3.502,0.926,6.186,2.776,8.051c2.021,2.036,4.812,3.054,8.371,3.054
		c3.446,0,6.158-0.912,8.138-2.734c2.164-1.979,3.246-4.634,3.246-7.966c0-3.132-0.861-5.738-2.584-7.817
		C890.195,47.041,887.29,45.902,883.361,45.902z M883.446,63.351c-2.022,0-3.51-0.783-4.464-2.35
		c-0.57-0.925-0.854-2.277-0.854-4.057c0-4.371,1.758-6.557,5.274-6.557c3.503,0.043,5.254,2.193,5.254,6.45
		C888.657,61.179,886.92,63.351,883.446,63.351z M907.28,43.552h9.29v23.963h6.194V43.552h9.653v-5.19H907.28V43.552z
		 M950.741,47.845c-0.654-0.598-1.47-1.018-2.445-1.26c-0.975-0.242-2.346-0.363-4.111-0.363h-8.67v21.293h5.852V50.771h1.687
		c1.466,0,2.467,0.274,3.001,0.822s0.802,1.577,0.802,3.086v1.154h5.616v-2.072c0-1.623-0.128-2.869-0.384-3.737
		C951.831,49.156,951.382,48.429,950.741,47.845z M971.949,46.735c-0.684-0.214-1.363-0.353-2.039-0.417
		c-0.677-0.063-1.897-0.096-3.663-0.096h-9.909v4.549h9.909c1.766,0,2.951,0.26,3.556,0.78c0.605,0.52,0.907,1.527,0.907,3.022
		h-7.175c-2.321,0-3.98,0.178-4.977,0.534c-1.125,0.398-2.032,1.157-2.723,2.275c-0.691,1.117-1.037,2.395-1.037,3.833
		c0,2.349,0.869,4.108,2.606,5.275c0.641,0.427,1.385,0.705,2.231,0.833c0.847,0.128,2.374,0.193,4.581,0.193h12.344V55.512
		C976.719,50.885,975.18,47.959,971.949,46.735z M970.71,62.966h-6.77c-1.154,0-1.969-0.143-2.446-0.427
		c-0.477-0.285-0.715-0.776-0.715-1.474c0-0.598,0.195-1.075,0.588-1.431c0.392-0.355,0.921-0.534,1.591-0.534l0.982,0.021h6.77
		V62.966z M998.624,47.269c-1.424-0.697-3.275-1.047-5.553-1.047h-5.189v-7.859h-5.853v29.153h9.525c1.922,0,3.414-0.11,4.475-0.332
		c1.061-0.22,2.074-0.63,3.043-1.228c3.133-1.936,4.698-5.061,4.698-9.375c0-1.779-0.313-3.41-0.939-4.891
		C1001.977,49.711,1000.574,48.237,998.624,47.269z M996.359,61.258c-0.911,1.139-2.292,1.708-4.143,1.708h-4.335V50.771h4.335
		c3.716,0,5.574,1.994,5.574,5.98C997.791,58.545,997.313,60.048,996.359,61.258z M1024.081,46.735
		c-0.684-0.214-1.363-0.353-2.039-0.417c-0.677-0.063-1.897-0.096-3.663-0.096h-9.909v4.549h9.909c1.766,0,2.951,0.26,3.556,0.78
		c0.605,0.52,0.908,1.527,0.908,3.022h-7.176c-2.321,0-3.98,0.178-4.977,0.534c-1.125,0.398-2.032,1.157-2.723,2.275
		c-0.691,1.117-1.035,2.395-1.035,3.833c0,2.349,0.867,4.108,2.604,5.275c0.641,0.427,1.385,0.705,2.231,0.833
		c0.847,0.128,2.374,0.193,4.581,0.193h12.345V55.512C1028.851,50.885,1027.312,47.959,1024.081,46.735z M1022.843,62.966h-6.771
		c-1.152,0-1.968-0.143-2.445-0.427s-0.715-0.776-0.715-1.474c0-0.598,0.195-1.075,0.587-1.431c0.392-0.355,0.921-0.534,1.591-0.534
		l0.982,0.021h6.771V62.966z M1034.162,67.515h5.852V38.363h-5.852V67.515z M1061.841,46.638c-1.012-0.277-2.4-0.417-4.165-0.417
		h-6.022v-7.859h-5.852v29.153h5.852V50.771h4.762c1.652,0.015,2.771,0.335,3.354,0.961c0.313,0.342,0.523,0.755,0.63,1.239
		c0.107,0.484,0.161,1.296,0.161,2.435v12.109h5.852V54.253c-0.015-2.891-0.685-4.948-2.008-6.173
		C1063.706,47.397,1062.851,46.916,1061.841,46.638z M1090.416,49.319c-1.879-2.277-4.784-3.417-8.714-3.417
		c-3.729,0.043-6.585,1.168-8.563,3.375c-1.78,1.979-2.67,4.463-2.67,7.454c0,3.502,0.926,6.186,2.776,8.051
		c2.021,2.036,4.813,3.054,8.372,3.054c3.445,0,6.158-0.912,8.136-2.734c2.165-1.979,3.247-4.634,3.247-7.966
		C1093,54.003,1092.138,51.398,1090.416,49.319z M1081.788,63.351c-2.021,0-3.511-0.783-4.464-2.35
		c-0.569-0.925-0.854-2.277-0.854-4.057c0-4.371,1.759-6.557,5.274-6.557c3.504,0.043,5.254,2.193,5.254,6.45
		C1086.998,61.179,1085.261,63.351,1081.788,63.351z M480.163,90.324c-0.896-0.242-2.186-0.362-3.865-0.362H465v21.293h5.852V94.51
		h5.104c1.068,0,1.837,0.232,2.307,0.695c0.47,0.462,0.705,1.221,0.705,2.274v13.775h5.852V98.14c0-2.961-0.748-5.118-2.243-6.471
		C481.865,91.015,481.06,90.566,480.163,90.324z M500.111,89.641c-3.73,0.042-6.585,1.167-8.564,3.374
		c-1.78,1.979-2.669,4.464-2.669,7.454c0,3.502,0.925,6.186,2.776,8.051c2.021,2.036,4.812,3.055,8.372,3.055
		c3.445,0,6.158-0.912,8.137-2.734c2.164-1.979,3.247-4.634,3.247-7.966c0-3.132-0.862-5.738-2.584-7.816
		C506.945,90.78,504.04,89.641,500.111,89.641z M500.196,107.09c-2.021,0-3.51-0.783-4.463-2.349
		c-0.569-0.926-0.854-2.278-0.854-4.059c0-4.371,1.758-6.557,5.275-6.557c3.503,0.042,5.254,2.193,5.254,6.45
		C505.407,104.919,503.67,107.09,500.196,107.09z M547.052,82.657c-1.153-0.37-3.053-0.556-5.702-0.556h-14.544v29.153H533v-10.188
		h9.974c1.694,0,3.033-0.146,4.015-0.438c0.982-0.291,1.9-0.815,2.755-1.569c0.968-0.854,1.723-1.943,2.264-3.268
		s0.813-2.727,0.813-4.207c0-1.794-0.414-3.438-1.239-4.934C550.47,84.63,548.961,83.298,547.052,82.657z M544.64,95.15
		c-0.613,0.484-1.673,0.727-3.183,0.727H533v-8.585h8.585c1.068,0,1.851,0.1,2.349,0.299c1.381,0.556,2.072,1.815,2.072,3.78
		C546.007,93.165,545.551,94.425,544.64,95.15z M572.638,90.473c-0.684-0.213-1.363-0.353-2.039-0.416
		c-0.677-0.063-1.897-0.096-3.663-0.096h-9.909v4.548h9.909c1.766,0,2.951,0.261,3.556,0.78c0.605,0.52,0.907,1.527,0.907,3.022
		h-7.175c-2.321,0-3.98,0.178-4.977,0.533c-1.125,0.398-2.032,1.157-2.723,2.274c-0.691,1.118-1.036,2.396-1.036,3.834
		c0,2.35,0.868,4.107,2.605,5.274c0.641,0.428,1.385,0.706,2.231,0.834s2.374,0.192,4.581,0.192h12.345V99.252
		C577.408,94.624,575.87,91.698,572.638,90.473z M571.399,106.705h-6.77c-1.152,0-1.968-0.143-2.445-0.427
		c-0.478-0.285-0.716-0.776-0.716-1.474c0-0.598,0.196-1.074,0.588-1.432c0.392-0.354,0.921-0.534,1.591-0.534l0.982,0.021h6.77
		V106.705z M597.946,91.585c-0.654-0.599-1.47-1.019-2.444-1.261c-0.976-0.242-2.347-0.362-4.112-0.362h-8.67v21.293h5.852V94.51
		h1.687c1.467,0,2.467,0.275,3.001,0.823s0.802,1.577,0.802,3.086v1.153h5.616V97.5c0-1.623-0.128-2.869-0.384-3.737
		C599.036,92.894,598.588,92.168,597.946,91.585z M614.391,87.442l5.425-5.703h-5.168l-4.015,5.703H614.391z M619.154,90.473
		c-0.684-0.213-1.363-0.353-2.039-0.416c-0.677-0.063-1.897-0.096-3.663-0.096h-9.909v4.548h9.909c1.766,0,2.95,0.261,3.556,0.78
		s0.907,1.527,0.907,3.022h-7.176c-2.32,0-3.979,0.178-4.976,0.533c-1.125,0.398-2.032,1.157-2.724,2.274
		c-0.69,1.118-1.035,2.396-1.035,3.834c0,2.35,0.868,4.107,2.605,5.274c0.641,0.428,1.384,0.706,2.231,0.834
		c0.847,0.128,2.374,0.192,4.581,0.192h12.344V99.252C623.924,94.624,622.385,91.698,619.154,90.473z M617.915,106.705h-6.77
		c-1.154,0-1.97-0.143-2.445-0.427c-0.478-0.285-0.716-0.776-0.716-1.474c0-0.598,0.196-1.074,0.588-1.432
		c0.392-0.354,0.921-0.534,1.591-0.534l0.982,0.021h6.77V106.705z M644.163,90.794c-1.311,0.556-2.434,1.489-3.375,2.798
		c-1.366,1.908-2.05,4.158-2.05,6.749c0,3.959,1.289,6.934,3.865,8.927c0.954,0.728,1.961,1.239,3.022,1.538
		c1.061,0.299,2.438,0.449,4.132,0.449h7.796v-4.55h-7.154c-1.767,0-3.043-0.291-3.834-0.876c-0.789-0.583-1.242-1.572-1.355-2.969
		h12.344v-4.548H645.21c0.143-1.453,0.537-2.448,1.186-2.99c0.646-0.541,1.769-0.813,3.362-0.813h7.796v-4.548h-8.223
		C647.195,89.962,645.472,90.239,644.163,90.794z M688.478,90.324c-0.897-0.242-2.186-0.362-3.865-0.362h-11.298v21.293h5.852V94.51
		h5.104c1.067,0,1.836,0.232,2.307,0.695c0.469,0.462,0.704,1.221,0.704,2.274v13.775h5.852V98.14c0-2.961-0.746-5.118-2.241-6.471
		C690.179,91.015,689.376,90.566,688.478,90.324z M708.426,89.641c-3.73,0.042-6.585,1.167-8.564,3.374
		c-1.779,1.979-2.668,4.464-2.668,7.454c0,3.502,0.924,6.186,2.776,8.051c2.021,2.036,4.812,3.055,8.371,3.055
		c3.444,0,6.157-0.912,8.137-2.734c2.164-1.979,3.247-4.634,3.247-7.966c0-3.132-0.862-5.738-2.585-7.816
		C715.26,90.78,712.356,89.641,708.426,89.641z M708.511,107.09c-2.022,0-3.51-0.783-4.464-2.349
		c-0.569-0.926-0.854-2.278-0.854-4.059c0-4.371,1.758-6.557,5.275-6.557c3.502,0.042,5.254,2.193,5.254,6.45
		C713.722,104.919,711.985,107.09,708.511,107.09z M744.37,82.101l-12.067,29.153h7.283l2.818-6.749h11.085l2.818,6.749h7.283
		l-12.066-29.153H744.37z M743.794,99.315l4.163-10.208l4.145,10.208H743.794z M792.626,90.388c-1.018-0.285-2.51-0.427-4.474-0.427
		h-21.528v21.293h5.852V94.51h6.3v16.745h5.852V94.51h3.118c1.239,0,2.157,0.293,2.755,0.876c0.314,0.328,0.517,0.691,0.609,1.09
		c0.092,0.398,0.139,1.109,0.139,2.136v12.644h5.853V97.693c0-2.45-0.641-4.372-1.923-5.767
		C794.494,91.185,793.643,90.674,792.626,90.388z M818.542,90.473c-0.684-0.213-1.363-0.353-2.039-0.416
		c-0.677-0.063-1.897-0.096-3.662-0.096h-9.91v4.548h9.91c1.765,0,2.95,0.261,3.555,0.78c0.605,0.52,0.908,1.527,0.908,3.022h-7.176
		c-2.321,0-3.98,0.178-4.976,0.533c-1.126,0.398-2.033,1.157-2.724,2.274c-0.691,1.118-1.035,2.396-1.035,3.834
		c0,2.35,0.868,4.107,2.604,5.274c0.641,0.428,1.385,0.706,2.231,0.834s2.374,0.192,4.581,0.192h12.345V99.252
		C823.311,94.624,821.775,91.698,818.542,90.473z M817.303,106.705h-6.771c-1.152,0-1.968-0.143-2.445-0.427
		c-0.477-0.285-0.715-0.776-0.715-1.474c0-0.598,0.195-1.074,0.587-1.432c0.392-0.354,0.922-0.534,1.591-0.534l0.982,0.021h6.771
		V106.705z M846.284,91.777c-0.91-0.712-1.879-1.193-2.903-1.442c-1.025-0.248-2.535-0.373-4.528-0.373h-10.229v29.302h5.852v-8.009
		h5.169c1.75,0,3.231-0.217,4.441-0.651s2.278-1.129,3.204-2.083c1.864-1.937,2.798-4.464,2.798-7.582
		C850.087,96.824,848.819,93.77,846.284,91.777z M842.248,105.488c-0.896,0.812-2.292,1.217-4.186,1.217h-3.588V94.51h3.994
		c1.808,0,3.196,0.517,4.164,1.549s1.452,2.51,1.452,4.432C844.085,102.725,843.472,104.391,842.248,105.488z M861.854,87.442h3.759
		l5.425-5.703h-5.169L861.854,87.442z M870.375,90.473c-0.684-0.213-1.363-0.353-2.039-0.416c-0.677-0.063-1.897-0.096-3.663-0.096
		h-9.909v4.548h9.909c1.766,0,2.951,0.261,3.556,0.78c0.605,0.52,0.908,1.527,0.908,3.022h-7.176c-2.321,0-3.979,0.178-4.977,0.533
		c-1.125,0.398-2.032,1.157-2.723,2.274c-0.69,1.118-1.035,2.396-1.035,3.834c0,2.35,0.868,4.107,2.604,5.274
		c0.641,0.428,1.386,0.706,2.231,0.834c0.849,0.128,2.375,0.192,4.582,0.192h12.344V99.252
		C875.145,94.624,873.608,91.698,870.375,90.473z M869.136,106.705h-6.77c-1.153,0-1.969-0.143-2.445-0.427
		c-0.479-0.285-0.716-0.776-0.716-1.474c0-0.598,0.195-1.074,0.587-1.432c0.392-0.354,0.921-0.534,1.591-0.534l0.983,0.021h6.77
		V106.705z"/>
</g>
</svg>
